<?xml version="1.0" encoding="UTF-8" standalone="no"?>
<!-- Uploaded to: SVG Repo, www.svgrepo.com, Generator: SVG Repo Mixer Tools -->

<svg
   fill="#000000"
   version="1.1"
   id="Capa_1"
   width="800"
   height="666.79663"
   viewBox="0 0 89.853 74.892097"
   xml:space="preserve"
   sodipodi:docname="Bio icon.svg"
   inkscape:version="1.4 (e7c3feb1, 2024-10-09)"
   xmlns:inkscape="http://www.inkscape.org/namespaces/inkscape"
   xmlns:sodipodi="http://sodipodi.sourceforge.net/DTD/sodipodi-0.dtd"
   xmlns="http://www.w3.org/2000/svg"
   xmlns:svg="http://www.w3.org/2000/svg"><defs
   id="defs4" /><sodipodi:namedview
   id="namedview4"
   pagecolor="#ffffff"
   bordercolor="#000000"
   borderopacity="0.25"
   inkscape:showpageshadow="2"
   inkscape:pageopacity="0.0"
   inkscape:pagecheckerboard="0"
   inkscape:deskcolor="#d1d1d1"
   inkscape:zoom="1.0975"
   inkscape:cx="400"
   inkscape:cy="333.48519"
   inkscape:window-width="1920"
   inkscape:window-height="1027"
   inkscape:window-x="0"
   inkscape:window-y="25"
   inkscape:window-maximized="0"
   inkscape:current-layer="Capa_1" />
<g
   id="g4"
   transform="translate(0,-7.4809016)">
	<g
   id="g3">
		<path
   d="m 20.55,60.811 v -0.277 c 2.271,-0.4 4.005,-1.383 5.213,-2.933 1.213,-1.558 1.809,-3.505 1.809,-5.842 0,-3.477 -1.227,-6.017 -3.684,-7.624 C 21.432,42.523 17.434,41.718 11.91,41.718 H 0 v 40.111 h 14.491 c 4.475,0 7.979,-1.02 10.491,-3.06 2.521,-2.039 3.771,-4.862 3.771,-8.463 0,-2.672 -0.659,-4.787 -1.983,-6.354 -1.328,-1.571 -3.403,-2.614 -6.22,-3.141 z M 6.557,47.2 h 5.681 c 2.957,0 5.126,0.418 6.49,1.26 1.369,0.842 2.046,2.204 2.046,4.09 0,2.084 -0.638,3.562 -1.896,4.428 -1.257,0.869 -3.267,1.304 -6.011,1.304 h -6.31 z m 13.191,27.531 c -1.403,1.051 -3.477,1.578 -6.221,1.578 H 6.557 V 63.606 h 6.641 c 2.909,0 5.079,0.503 6.5,1.509 1.43,1.007 2.141,2.553 2.141,4.638 0.003,2.265 -0.693,3.925 -2.091,4.978 z"
   id="path1" />
		<rect
   x="37.089001"
   y="41.710999"
   width="6.5640001"
   height="40.111"
   id="rect1" />
		<path
   d="m 84.966,46.488 c -3.258,-3.604 -7.864,-5.403 -13.833,-5.403 -6.05,0 -10.704,1.776 -13.969,5.321 -3.265,3.549 -4.897,8.631 -4.897,15.256 0,6.619 1.629,11.729 4.877,15.318 3.251,3.593 7.892,5.393 13.945,5.393 5.981,0 10.599,-1.81 13.873,-5.431 3.262,-3.62 4.891,-8.692 4.891,-15.225 C 89.846,55.164 88.217,50.089 84.966,46.488 Z M 79.907,72.99 c -1.981,2.521 -4.928,3.785 -8.822,3.785 -3.915,0 -6.871,-1.277 -8.863,-3.826 -1.991,-2.553 -2.991,-6.294 -2.991,-11.235 0,-4.921 1.007,-8.647 3.012,-11.194 1.995,-2.539 4.962,-3.812 8.891,-3.812 3.898,0 6.834,1.272 8.802,3.812 1.965,2.547 2.943,6.273 2.943,11.194 -0.001,4.993 -0.983,8.751 -2.972,11.276 z"
   id="path2" />
		<path
   d="m 55.312,30.8 c 0.791,-0.838 1.57,-1.631 2.262,-2.534 1.387,-1.742 2.563,-3.584 3.505,-5.523 0.492,-0.914 0.89,-1.973 1.276,-2.929 0.396,-0.95 0.732,-1.997 1.058,-2.96 0.328,-0.946 0.63,-1.906 0.89,-2.835 0.294,-0.96 0.555,-1.802 0.77,-2.484 0.236,-0.683 0.387,-1.398 0.523,-1.819 0.123,-0.476 0.192,-0.726 0.192,-0.726 0,0 -0.236,-0.13 -0.65,-0.298 C 64.727,8.545 64.071,8.237 63.303,8.064 62.537,7.883 61.49,7.563 60.439,7.518 59.385,7.455 58.177,7.469 56.864,7.585 c -1.271,0.157 -2.554,0.487 -3.936,0.9 -1.369,0.421 -2.622,1.069 -3.948,1.778 -1.293,0.729 -2.464,1.622 -3.641,2.592 -1.101,0.996 -2.141,2.086 -3.094,3.246 -0.876,1.181 -1.746,2.402 -2.397,3.689 -0.683,1.28 -1.265,2.594 -1.665,3.929 -0.862,2.646 -1.141,5.344 -1.083,7.734 0.057,1.211 0.173,2.334 0.365,3.361 0.18,1.02 0.467,1.959 0.698,2.712 0.094,0.361 0.225,0.696 0.351,0.994 0.178,-0.412 0.368,-0.854 0.588,-1.338 1.083,-2.382 2.669,-5.491 4.559,-8.42 0.939,-1.461 1.973,-2.863 2.992,-4.132 0.541,-0.612 1.07,-1.201 1.561,-1.762 0.525,-0.519 1.032,-1.017 1.498,-1.465 0.51,-0.417 0.965,-0.792 1.372,-1.124 0.394,-0.354 0.811,-0.568 1.119,-0.779 0.633,-0.417 0.992,-0.648 0.992,-0.648 0,0 -0.343,0.267 -0.944,0.722 -0.288,0.241 -0.671,0.481 -1.041,0.859 -0.369,0.364 -0.794,0.77 -1.259,1.215 -0.418,0.481 -0.876,1.01 -1.362,1.564 -0.438,0.585 -0.905,1.201 -1.388,1.836 -0.898,1.325 -1.809,2.772 -2.607,4.274 -1.615,3.004 -2.923,6.158 -3.792,8.559 -0.251,0.712 -0.251,0.712 -0.368,1.044 L 42.4,38.918 c 0.561,-0.207 1.17,-0.428 1.78,-0.712 0.905,-0.388 1.868,-0.843 2.842,-1.358 0.979,-0.508 1.938,-1.097 2.923,-1.714 0.972,-0.616 1.902,-1.314 2.812,-2.03 0.875,-0.739 1.764,-1.484 2.555,-2.304 z"
   id="path3" />
	</g>
</g>
</svg>
