<?xml version="1.0" encoding="iso-8859-1"?>
<!-- Uploaded to: SVG Repo, www.svgrepo.com, Generator: SVG Repo Mixer Tools -->
<!DOCTYPE svg PUBLIC "-//W3C//DTD SVG 1.1//EN" "http://www.w3.org/Graphics/SVG/1.1/DTD/svg11.dtd">
<svg fill="#000000" version="1.1" id="Capa_1" xmlns="http://www.w3.org/2000/svg" xmlns:xlink="http://www.w3.org/1999/xlink" 
	 width="800px" height="800px" viewBox="0 0 89.853 89.853"
	 xml:space="preserve">
<g>
	<g>
		<path d="M20.55,60.811v-0.277c2.271-0.4,4.005-1.383,5.213-2.933c1.213-1.558,1.809-3.505,1.809-5.842
			c0-3.477-1.227-6.017-3.684-7.624c-2.456-1.612-6.454-2.417-11.978-2.417H0v40.111h14.491c4.475,0,7.979-1.02,10.491-3.06
			c2.521-2.039,3.771-4.862,3.771-8.463c0-2.672-0.659-4.787-1.983-6.354C25.442,62.381,23.367,61.338,20.55,60.811z M6.557,47.2
			h5.681c2.957,0,5.126,0.418,6.49,1.26c1.369,0.842,2.046,2.204,2.046,4.09c0,2.084-0.638,3.562-1.896,4.428
			c-1.257,0.869-3.267,1.304-6.011,1.304h-6.31V47.2z M19.748,74.731c-1.403,1.051-3.477,1.578-6.221,1.578H6.557V63.606h6.641
			c2.909,0,5.079,0.503,6.5,1.509c1.43,1.007,2.141,2.553,2.141,4.638C21.842,72.018,21.146,73.678,19.748,74.731z"/>
		<rect x="37.089" y="41.711" width="6.564" height="40.111"/>
		<path d="M84.966,46.488c-3.258-3.604-7.864-5.403-13.833-5.403c-6.05,0-10.704,1.776-13.969,5.321
			c-3.265,3.549-4.897,8.631-4.897,15.256c0,6.619,1.629,11.729,4.877,15.318c3.251,3.593,7.892,5.393,13.945,5.393
			c5.981,0,10.599-1.81,13.873-5.431c3.262-3.62,4.891-8.692,4.891-15.225C89.846,55.164,88.217,50.089,84.966,46.488z
			 M79.907,72.99c-1.981,2.521-4.928,3.785-8.822,3.785c-3.915,0-6.871-1.277-8.863-3.826c-1.991-2.553-2.991-6.294-2.991-11.235
			c0-4.921,1.007-8.647,3.012-11.194c1.995-2.539,4.962-3.812,8.891-3.812c3.898,0,6.834,1.272,8.802,3.812
			c1.965,2.547,2.943,6.273,2.943,11.194C82.878,66.707,81.896,70.465,79.907,72.99z"/>
		<path d="M55.312,30.8c0.791-0.838,1.57-1.631,2.262-2.534c1.387-1.742,2.563-3.584,3.505-5.523
			c0.492-0.914,0.89-1.973,1.276-2.929c0.396-0.95,0.732-1.997,1.058-2.96c0.328-0.946,0.63-1.906,0.89-2.835
			c0.294-0.96,0.555-1.802,0.77-2.484c0.236-0.683,0.387-1.398,0.523-1.819c0.123-0.476,0.192-0.726,0.192-0.726
			s-0.236-0.13-0.65-0.298c-0.411-0.147-1.067-0.455-1.835-0.628c-0.766-0.181-1.813-0.501-2.864-0.546
			c-1.054-0.063-2.262-0.049-3.575,0.067c-1.271,0.157-2.554,0.487-3.936,0.9c-1.369,0.421-2.622,1.069-3.948,1.778
			c-1.293,0.729-2.464,1.622-3.641,2.592c-1.101,0.996-2.141,2.086-3.094,3.246c-0.876,1.181-1.746,2.402-2.397,3.689
			c-0.683,1.28-1.265,2.594-1.665,3.929c-0.862,2.646-1.141,5.344-1.083,7.734c0.057,1.211,0.173,2.334,0.365,3.361
			c0.18,1.02,0.467,1.959,0.698,2.712c0.094,0.361,0.225,0.696,0.351,0.994c0.178-0.412,0.368-0.854,0.588-1.338
			c1.083-2.382,2.669-5.491,4.559-8.42c0.939-1.461,1.973-2.863,2.992-4.132c0.541-0.612,1.07-1.201,1.561-1.762
			c0.525-0.519,1.032-1.017,1.498-1.465c0.51-0.417,0.965-0.792,1.372-1.124c0.394-0.354,0.811-0.568,1.119-0.779
			c0.633-0.417,0.992-0.648,0.992-0.648s-0.343,0.267-0.944,0.722c-0.288,0.241-0.671,0.481-1.041,0.859
			c-0.369,0.364-0.794,0.77-1.259,1.215c-0.418,0.481-0.876,1.01-1.362,1.564c-0.438,0.585-0.905,1.201-1.388,1.836
			c-0.898,1.325-1.809,2.772-2.607,4.274c-1.615,3.004-2.923,6.158-3.792,8.559c-0.251,0.712-0.251,0.712-0.368,1.044l1.966-0.007
			c0.561-0.207,1.17-0.428,1.78-0.712c0.905-0.388,1.868-0.843,2.842-1.358c0.979-0.508,1.938-1.097,2.923-1.714
			c0.972-0.616,1.902-1.314,2.812-2.03C53.632,32.365,54.521,31.62,55.312,30.8z"/>
	</g>
</g>
</svg>